<svg xmlns="http://www.w3.org/2000/svg" version="1.1" xmlns:xlink="http://www.w3.org/1999/xlink" xmlns:svgjs="http://svgjs.dev/svgjs" width="1500" height="454" viewBox="0 0 1500 454"><g transform="matrix(1,0,0,1,-0.9090909090909918,0.8080077077464125)"><svg viewBox="0 0 396 120" data-background-color="#ffffff" preserveAspectRatio="xMidYMid meet" height="454" width="1500" xmlns="http://www.w3.org/2000/svg" xmlns:xlink="http://www.w3.org/1999/xlink"><g id="tight-bounds" transform="matrix(1,0,0,1,0.2400000000000091,-0.21357031922812553)"><svg viewBox="0 0 395.52 120.42714063845624" height="120.42714063845624" width="395.52"><g><svg viewBox="0 0 395.52 120.42714063845624" height="120.42714063845624" width="395.52"><g><svg viewBox="0 0 395.52 120.42714063845624" height="120.42714063845624" width="395.52"><g id="textblocktransform"><svg viewBox="0 0 395.52 120.42714063845624" height="120.42714063845624" width="395.52" id="textblock"><g><rect width="395.52" height="92.46361819434873" fill="none" stroke-width="9.018103199999999" stroke="#cb8c2f" data-fill-palette-color="none" data-stroke-palette-color="tertiary"></rect><rect width="395.52" height="27.963522444107515" y="92.46361819434873" fill="#cb8c2f" data-fill-palette-color="tertiary"></rect></g><g><svg viewBox="0 0 395.52 92.46361819434873" height="92.46361819434873" width="395.52"><g transform="matrix(1,0,0,1,23.607599999999998,23.607599999999998)"><svg width="348.3048" viewBox="2.5 -37.5 290.17 37.7" height="45.24841819434873" data-palette-color="#cb8c2f"><path d="M21.25-32.25L8.95-32.25 8.95-18.85 19.85-18.85 19.85-22 22.6-22 22.6-13.4 19.85-13.4 19.85-16.1 8.95-16.1 8.95-2.75 12.6-2.75 12.6 0 2.5 0 2.5-2.75 5.55-2.75 5.55-32.25 2.5-32.25 2.5-35 23.75-35 23.7-34.7 24.35-27.8 21.85-27.4 21.25-32.25ZM33.1 0.2L33.1 0.2Q26.45 0.2 26.05-5.05L26.05-5.05Q26-5.4 26-5.75L26-5.75Q26-9.95 31.05-11.35L31.05-11.35Q33.85-12.05 41.85-12.95L41.85-12.95 41.85-16.8Q41.85-22.25 36.15-22.25L36.15-22.25Q32.05-22.2 27.45-20.35L27.45-20.35 26.6-22.5 27.1-22.7Q31-24.4 33.05-24.75 35.1-25.1 36.05-25.13 37-25.15 37.87-25.1 38.75-25.05 40.15-24.65 41.55-24.25 42.57-23.53 43.6-22.8 44.35-21.35 45.1-19.9 45.1-17.9L45.1-17.9 45.1-2.5 48.95-2.5 48.95 0 42.35 0 41.85-1.9Q37.35 0.2 33.1 0.2ZM34-2.1L34-2.1Q37.8-2.1 41.85-3.8L41.85-3.8 41.85-10.95Q34.35-10.7 32.15-9.95L32.15-9.95Q30.45-9.5 29.75-8.33 29.05-7.15 29.05-6.45 29.05-5.75 29.05-5.5L29.05-5.5Q29.2-3.7 30.6-2.9 32-2.1 34-2.1ZM54.95-8.05L55.2-3.25Q57.3-2.6 58.57-2.6 59.85-2.6 60.25-2.65L60.25-2.65Q62.85-2.7 64.6-3.75 66.35-4.8 66.35-6.7 66.35-8.6 64.97-9.65 63.6-10.7 61.65-11.25 59.7-11.8 57.75-12.45 55.8-13.1 54.42-14.5 53.05-15.9 53.05-18.15L53.05-18.15Q53.05-21.35 55.5-23.28 57.95-25.2 61.7-25.2L61.7-25.2Q64.5-25.2 67.35-24.2L67.35-24.2 68.25-23.85 68.25-18.1 65.8-17.75 65.6-22Q63.6-22.3 62.25-22.3L62.25-22.3Q59.5-22.3 57.9-21.23 56.3-20.15 56.3-18.48 56.3-16.8 57.67-15.85 59.05-14.9 61-14.35 62.95-13.8 64.9-13.13 66.85-12.45 68.22-10.93 69.6-9.4 69.6-6.95L69.6-6.95Q69.6-3.65 67.12-1.73 64.65 0.2 60.1 0.2 55.55 0.2 52.55-1.95L52.55-1.95 52.55-7.7 54.95-8.05ZM99.79 0L89.69 0 89.69-2.5 92.74-2.5 92.74-17.1Q92.74-18.85 92.02-19.95 91.29-21.05 90.14-21.4L90.14-21.4Q88.24-22.05 87.04-21.95L87.04-21.95Q83.79-21.85 79.89-19.65L79.89-19.65 79.89-2.5 83.69-2.5 83.69 0 73.59 0 73.59-2.5 76.64-2.5 76.64-35 73.29-35 73.29-37.5 79.89-37.5 79.89-21.9Q86.44-26.4 91.74-24.7L91.74-24.7Q92.94-24.35 93.82-23.68 94.69-23 95.34-21.65 95.99-20.3 95.99-18.4L95.99-18.4 95.99-2.5 99.79-2.5 99.79 0ZM105.54-22.5L102.19-22.5 102.19-25 108.79-25 108.79-2.5 112.54-2.5 112.54 0 102.44 0 102.44-2.5 105.54-2.5 105.54-22.5ZM107.09-31.7Q106.09-31.7 105.54-32.33 104.99-32.95 104.99-33.98 104.99-35 105.57-35.63 106.14-36.25 107.14-36.25 108.14-36.25 108.77-35.63 109.39-35 109.39-33.93 109.39-32.85 108.74-32.27 108.09-31.7 107.09-31.7ZM125.96 0.2Q120.74 0.2 117.51-2.8 114.29-5.8 114.29-11.98 114.29-18.15 117.71-21.68 121.14-25.2 126.34-25.2 131.54-25.2 134.79-22.2 138.04-19.2 138.04-13.03 138.04-6.85 134.61-3.33 131.19 0.2 125.96 0.2ZM126.26-22.3Q122.54-22.3 120.04-19.6 117.54-16.9 117.54-12.28 117.54-7.65 119.91-5.18 122.29-2.7 126.04-2.7 129.79-2.7 132.29-5.38 134.79-8.05 134.79-12.68 134.79-17.3 132.39-19.8 129.99-22.3 126.26-22.3ZM144.14-22.5L140.79-22.5 140.79-25 147.39-25 147.39-22.2Q151.49-25 155.24-25.15L155.24-25.15Q158.89-25.15 160.79-23.7L160.79-23.7Q161.64-23.05 162.31-21.68 162.99-20.3 162.99-18.4L162.99-18.4 162.99-2.5 166.84-2.5 166.84 0 156.74 0 156.74-2.5 159.74-2.5 159.74-17.15Q159.74-22 154.04-22L154.04-22Q150.94-21.9 147.39-19.95L147.39-19.95 147.39-2.5 151.14-2.5 151.14 0 141.04 0 141.04-2.5 144.14-2.5 144.14-22.5ZM191.03-32.25L178.73-32.25 178.73-18.85 189.63-18.85 189.63-22 192.38-22 192.38-13.4 189.63-13.4 189.63-16.1 178.73-16.1 178.73-2.75 182.38-2.75 182.38 0 172.28 0 172.28-2.75 175.33-2.75 175.33-32.25 172.28-32.25 172.28-35 193.53-35 193.48-34.7 194.13-27.8 191.63-27.4 191.03-32.25ZM199.18-22.5L195.83-22.5 195.83-25 202.43-25 202.43-2.5 206.18-2.5 206.18 0 196.08 0 196.08-2.5 199.18-2.5 199.18-22.5ZM200.73-31.7Q199.73-31.7 199.18-32.33 198.63-32.95 198.63-33.98 198.63-35 199.21-35.63 199.78-36.25 200.78-36.25 201.78-36.25 202.41-35.63 203.03-35 203.03-33.93 203.03-32.85 202.38-32.27 201.73-31.7 200.73-31.7ZM211.58-11.2L211.58-11.2Q211.58-6.75 214.13-4.73 216.68-2.7 220.08-2.7L220.08-2.7Q222.28-2.7 224.6-3.13 226.93-3.55 227.68-3.9L227.68-3.9 228.33-1.55Q227.18-0.8 224.55-0.3 221.93 0.2 219.75 0.2 217.58 0.2 215.85-0.25 214.13-0.7 212.33-1.85 210.53-3 209.48-5.45 208.43-7.9 208.43-11.45L208.43-11.45Q208.43-18.05 211.83-21.55L211.83-21.55Q215.38-25.2 220.08-25.2 224.78-25.2 227.25-22.6 229.73-20 229.73-15.3L229.73-15.3Q229.73-14.3 229.58-13.15L229.58-13.15 211.73-13.15Q211.58-12.1 211.58-11.2ZM226.73-15.65L226.73-15.65Q226.73-18.75 224.88-20.43 223.03-22.1 220.58-22.1L220.58-22.1Q217.23-22.1 215.03-20.08 212.83-18.05 212.08-15.1L212.08-15.1 226.73-15.1Q226.73-15.4 226.73-15.65ZM235.88-8.05L236.13-3.25Q238.23-2.6 239.5-2.6 240.78-2.6 241.18-2.65L241.18-2.65Q243.78-2.7 245.53-3.75 247.28-4.8 247.28-6.7 247.28-8.6 245.9-9.65 244.53-10.7 242.58-11.25 240.63-11.8 238.68-12.45 236.73-13.1 235.35-14.5 233.98-15.9 233.98-18.15L233.98-18.15Q233.98-21.35 236.43-23.28 238.88-25.2 242.63-25.2L242.63-25.2Q245.43-25.2 248.28-24.2L248.28-24.2 249.18-23.85 249.18-18.1 246.73-17.75 246.53-22Q244.53-22.3 243.18-22.3L243.18-22.3Q240.43-22.3 238.83-21.23 237.23-20.15 237.23-18.48 237.23-16.8 238.6-15.85 239.98-14.9 241.93-14.35 243.88-13.8 245.83-13.13 247.78-12.45 249.15-10.93 250.53-9.4 250.53-6.95L250.53-6.95Q250.53-3.65 248.05-1.73 245.58 0.2 241.03 0.2 236.48 0.2 233.48-1.95L233.48-1.95 233.48-7.7 235.88-8.05ZM264.82-2.45L264.82-2.45 266.77-2.55 266.92-0.55Q266.87-0.55 266.22-0.4L266.22-0.4Q264.72-0.05 262.87-0.05L262.87-0.05Q261.17-0.15 259.77-0.63 258.37-1.1 257.17-2.63 255.97-4.15 255.97-6.55L255.97-6.55 255.97-22.1 253.42-22.1 253.82-24.5 256.02-24.95 256.42-29.75 259.22-30 259.22-25 265.27-25 265.27-22.1 259.22-22.1 259.22-7.4Q259.22-2.45 264.82-2.45ZM276.82 0.2L276.82 0.2Q270.17 0.2 269.77-5.05L269.77-5.05Q269.72-5.4 269.72-5.75L269.72-5.75Q269.72-9.95 274.77-11.35L274.77-11.35Q277.57-12.05 285.57-12.95L285.57-12.95 285.57-16.8Q285.57-22.25 279.87-22.25L279.87-22.25Q275.77-22.2 271.17-20.35L271.17-20.35 270.32-22.5 270.82-22.7Q274.72-24.4 276.77-24.75 278.82-25.1 279.77-25.13 280.72-25.15 281.6-25.1 282.47-25.05 283.87-24.65 285.27-24.25 286.3-23.53 287.32-22.8 288.07-21.35 288.82-19.9 288.82-17.9L288.82-17.9 288.82-2.5 292.67-2.5 292.67 0 286.07 0 285.57-1.9Q281.07 0.2 276.82 0.2ZM277.72-2.1L277.72-2.1Q281.52-2.1 285.57-3.8L285.57-3.8 285.57-10.95Q278.07-10.7 275.87-9.95L275.87-9.95Q274.17-9.5 273.47-8.33 272.77-7.15 272.77-6.45 272.77-5.75 272.77-5.5L272.77-5.5Q272.92-3.7 274.32-2.9 275.72-2.1 277.72-2.1Z" opacity="1" transform="matrix(1,0,0,1,0,0)" fill="#cb8c2f" class="wordmark-text-0" data-fill-palette-color="primary" id="text-0"></path></svg></g></svg></g></svg></g></svg></g></svg></g><defs></defs></svg><rect width="395.52" height="120.42714063845624" fill="none" stroke="none" visibility="hidden"></rect></g></svg></g></svg>